<svg width="358" height="111" viewBox="0 0 358 111" fill="none" xmlns="http://www.w3.org/2000/svg">
<g clip-path="url(#clip0)">
<path fill-rule="evenodd" clip-rule="evenodd" d="M44.3927 43.1861V68.2534L0 46.8432V21.875L44.389 43.1714L44.3927 43.1861Z" fill="#F04E45"/>
<path fill-rule="evenodd" clip-rule="evenodd" d="M88.7819 64.1704V89.2341L44.3928 68.2572V43.1494L88.7819 64.1704Z" fill="#4494D0"/>
<path fill-rule="evenodd" clip-rule="evenodd" d="M88.3339 21.6804L88.7819 21.8934V46.8616L44.3928 25.8809V0.769531L88.3339 21.6988V21.6804Z" fill="#4494D0"/>
<path fill-rule="evenodd" clip-rule="evenodd" d="M44.3928 43.1861V68.2534L88.7819 46.8432V21.875L44.3928 43.1714V43.1861Z" fill="#B0D240"/>
<path fill-rule="evenodd" clip-rule="evenodd" d="M44.3928 85.5622V110.633L88.7819 89.2193V64.2511L44.3928 85.5475V85.5622Z" fill="#B0D240"/>
<path fill-rule="evenodd" clip-rule="evenodd" d="M44.3927 85.5622V110.633L0 89.2193V64.2511L44.389 85.5475L44.3927 85.5622Z" fill="#F04E45"/>
<path d="M114.212 51.4952L112.42 53.3311C110.939 51.8942 109.482 51.177 108.048 51.1795C107.186 51.164 106.352 51.4828 105.723 52.068C105.42 52.3244 105.177 52.6424 105.01 53.0004C104.842 53.3584 104.755 53.748 104.753 54.1426C104.769 54.881 105.053 55.589 105.553 56.1364C106.086 56.779 107.204 57.539 108.907 58.4056C110.98 59.4753 112.389 60.5022 113.135 61.4862C113.864 62.4631 114.254 63.6486 114.245 64.8642C114.261 65.6995 114.102 66.529 113.779 67.3005C113.456 68.072 112.976 68.769 112.368 69.3475C111.753 69.9521 111.02 70.4266 110.215 70.7421C109.409 71.0577 108.547 71.2078 107.681 71.1834C106.442 71.1857 105.218 70.9095 104.101 70.3756C102.997 69.8612 102.031 69.0965 101.28 68.1432L103.031 66.1677C104.438 67.7515 105.945 68.5434 107.552 68.5434C108.607 68.5675 109.63 68.1844 110.406 67.4749C110.773 67.1661 111.069 66.782 111.272 66.349C111.475 65.9161 111.582 65.4446 111.583 64.9671C111.589 64.1934 111.313 63.4436 110.806 62.8558C110.288 62.2487 109.117 61.485 107.293 60.5646C105.338 59.5634 104.008 58.5757 103.302 57.6014C102.599 56.6296 102.229 55.4597 102.247 54.2638C102.225 53.5066 102.364 52.7534 102.654 52.0526C102.944 51.3519 103.379 50.7193 103.931 50.1954C104.496 49.6578 105.164 49.2375 105.895 48.9595C106.626 48.6814 107.406 48.5511 108.189 48.5762C110.185 48.586 112.193 49.559 114.212 51.4952Z" fill="#172951"/>
<path d="M121.579 41.1666H124.367V49.1454H128.787V51.5358H124.367V70.6291H121.579V51.5358H117.777V49.1454H121.579V41.1666Z" fill="#172951"/>
<path d="M154.554 49.1453V70.629H151.789V66.9388C150.723 68.2654 149.382 69.3497 147.857 70.1186C145.782 71.1025 143.447 71.4152 141.183 71.0127C138.918 70.6102 136.838 69.5127 135.237 67.8751C134.176 66.8204 133.341 65.5643 132.781 64.182C132.221 62.7997 131.948 61.3196 131.979 59.8302C131.955 58.3545 132.235 56.8896 132.8 55.5243C133.365 54.159 134.204 52.9219 135.266 51.8881C136.284 50.8281 137.511 49.9875 138.871 49.4189C140.231 48.8503 141.695 48.5659 143.17 48.5835C144.844 48.5618 146.496 48.949 147.983 49.7107C149.497 50.5257 150.796 51.683 151.774 53.0888V49.1453H154.554ZM143.415 51.2566C141.898 51.245 140.407 51.6406 139.099 52.4015C137.791 53.1623 136.714 54.2601 135.984 55.5783C135.219 56.8988 134.816 58.3952 134.816 59.9183C134.816 61.4414 135.219 62.9379 135.984 64.2584C136.722 65.5953 137.811 66.7092 139.135 67.4822C140.419 68.2403 141.887 68.6388 143.381 68.6352C144.902 68.636 146.397 68.2424 147.717 67.4933C149.039 66.7729 150.132 65.6993 150.871 64.3943C151.621 63.0461 152.003 61.5276 151.981 59.9881C152.015 58.8357 151.813 57.6885 151.387 56.6157C150.961 55.5429 150.321 54.5667 149.505 53.746C148.718 52.9363 147.771 52.297 146.723 51.8685C145.674 51.44 144.548 51.2317 143.415 51.2566Z" fill="#172951"/>
<path d="M181.854 53.6066L179.633 54.9688C177.725 52.4573 175.12 51.2003 171.818 51.1979C169.179 51.1979 166.989 52.0399 165.246 53.7241C164.404 54.5097 163.735 55.4612 163.285 56.5178C162.834 57.5743 162.611 58.7126 162.629 59.8596C162.629 61.4082 163.044 62.9289 163.832 64.2658C164.61 65.6218 165.753 66.7357 167.135 67.4823C168.578 68.2539 170.197 68.647 171.836 68.6242C173.344 68.6574 174.838 68.3344 176.195 67.682C177.552 67.0295 178.733 66.0662 179.64 64.8716L181.862 66.3146C180.821 67.8628 179.38 69.1054 177.689 69.913C175.828 70.79 173.786 71.2273 171.725 71.1908C168.302 71.1908 165.464 70.1113 163.21 67.9523C162.121 66.9474 161.257 65.7266 160.674 64.3691C160.091 63.0117 159.802 61.5478 159.826 60.0726C159.814 58.0348 160.361 56.0321 161.407 54.2785C162.441 52.5142 163.946 51.068 165.757 50.1C167.66 49.0857 169.791 48.5689 171.951 48.5982C173.361 48.5939 174.762 48.8146 176.101 49.2518C177.32 49.6262 178.467 50.1995 179.496 50.9482C180.448 51.6747 181.249 52.5775 181.854 53.6066Z" fill="#172951"/>
<path d="M187.189 40.8507H189.977V57.8144L200.021 49.1453H204.115L192.206 59.3933L204.811 70.629H200.887L189.977 60.9575V70.629H187.189V40.8507Z" fill="#172951"/>
<path d="M212.716 40.8508V51.499C213.626 50.5694 214.708 49.8216 215.903 49.2959C217.06 48.8055 218.306 48.5555 219.565 48.5616C220.926 48.5458 222.275 48.8218 223.519 49.3706C224.763 49.9194 225.873 50.728 226.773 51.7413C228.747 53.8612 229.734 56.5795 229.734 59.8964C229.734 63.0982 228.713 65.7749 226.669 67.9266C224.625 70.0783 222.203 71.1541 219.402 71.1541C218.208 71.1645 217.024 70.9399 215.918 70.4932C214.724 69.9746 213.637 69.2414 212.712 68.3305V70.5997H207.322V40.8214L212.716 40.8508ZM218.428 53.5699C217.634 53.5498 216.844 53.6957 216.111 53.9981C215.377 54.3004 214.716 54.7526 214.171 55.325C213.043 56.4828 212.477 57.9968 212.475 59.867C212.475 61.7763 213.04 63.3197 214.171 64.4971C214.715 65.0708 215.376 65.5235 216.11 65.8254C216.844 66.1272 217.634 66.2715 218.428 66.2486C219.215 66.2605 219.996 66.1062 220.719 65.796C221.441 65.4858 222.089 65.0268 222.619 64.4494C223.771 63.203 224.381 61.5567 224.318 59.867C224.388 58.1945 223.789 56.5624 222.652 55.325C222.114 54.7514 221.459 54.2981 220.731 53.9954C220.003 53.6928 219.218 53.5477 218.428 53.5699Z" fill="#172951"/>
<path d="M234.218 49.1454H239.716V59.4925C239.716 61.5095 239.855 62.9085 240.134 63.6894C240.376 64.4272 240.848 65.0699 241.482 65.5253C242.155 65.9781 242.956 66.207 243.769 66.1788C244.585 66.2042 245.389 65.9798 246.072 65.5363C246.732 65.0739 247.225 64.4136 247.479 63.6526C247.705 63.0321 247.82 61.7103 247.82 59.6798V49.1454H253.254V58.2625C253.254 62.015 252.956 64.5853 252.359 65.9732C251.709 67.5634 250.583 68.9179 249.134 69.8543C247.712 70.7551 245.907 71.2055 243.718 71.2055C241.341 71.2055 239.419 70.6792 237.953 69.6267C236.46 68.5362 235.372 66.9873 234.858 65.2205C234.431 63.9182 234.218 61.5487 234.218 58.1119V49.1454Z" fill="#172951"/>
<path d="M260.833 40.2965C261.291 40.2916 261.745 40.3804 262.166 40.5573C262.588 40.7342 262.968 40.9954 263.284 41.3246C263.615 41.6491 263.877 42.0372 264.053 42.4651C264.228 42.8931 264.314 43.352 264.305 43.814C264.313 44.2703 264.228 44.7235 264.053 45.1458C263.879 45.5681 263.619 45.9508 263.291 46.2705C262.98 46.5966 262.605 46.8554 262.188 47.0305C261.771 47.2055 261.322 47.293 260.87 47.2875C260.408 47.294 259.951 47.2053 259.525 47.027C259.1 46.8488 258.717 46.5849 258.4 46.2521C258.068 45.9221 257.805 45.529 257.629 45.0962C257.453 44.6634 257.366 44.1999 257.375 43.7333C257.376 42.8233 257.74 41.9508 258.388 41.3067C259.036 40.6626 259.915 40.2994 260.833 40.2965ZM258.112 49.1455H263.55V70.6291H258.112V49.1455Z" fill="#172951"/>
<path d="M267.889 40.8507H273.328V70.629H267.889V40.8507Z" fill="#172951"/>
<path d="M294.252 40.8507H299.687V70.629H294.252V68.3598C293.331 69.2685 292.25 70.0016 291.061 70.5225C289.961 70.9695 288.781 71.1942 287.592 71.1834C284.793 71.1834 282.373 70.1076 280.332 67.9559C278.291 65.8042 277.269 63.1275 277.267 59.9257C277.267 56.6113 278.254 53.8929 280.229 51.7706C281.127 50.7575 282.236 49.9489 283.478 49.4001C284.721 48.8513 286.069 48.5752 287.429 48.5908C288.686 48.5848 289.931 48.8348 291.087 49.3252C292.275 49.8497 293.349 50.5979 294.249 51.5283L294.252 40.8507ZM288.54 53.5698C287.756 53.5486 286.977 53.6943 286.254 53.997C285.532 54.2998 284.884 54.7526 284.353 55.3249C283.218 56.5589 282.618 58.1866 282.683 59.8559C282.62 61.5456 283.23 63.1919 284.382 64.4383C284.909 65.0166 285.553 65.4765 286.274 65.7868C286.994 66.0972 287.773 66.2508 288.558 66.2375C289.352 66.2579 290.141 66.1106 290.874 65.8055C291.606 65.5004 292.264 65.0444 292.805 64.4677C293.93 63.2903 294.493 61.7469 294.493 59.8375C294.493 57.9698 293.93 56.4558 292.805 55.2955C292.256 54.7277 291.592 54.2806 290.857 53.9833C290.123 53.686 289.333 53.5451 288.54 53.5698Z" fill="#172951"/>
<path d="M326.902 61.4495H309.424C309.62 62.8707 310.342 64.1689 311.449 65.0919C312.636 66.0253 314.122 66.5048 315.636 66.4431C316.607 66.4575 317.572 66.278 318.472 65.9153C319.372 65.5526 320.189 65.0141 320.875 64.3318L325.454 66.4651C324.414 67.9762 323 69.1974 321.348 70.0121C319.572 70.8221 317.632 71.2177 315.677 71.1687C312.278 71.1687 309.51 70.1051 307.373 67.9779C305.235 65.8507 304.167 63.1887 304.167 59.9918C304.167 56.7116 305.232 53.9896 307.362 51.8257C309.492 49.6618 312.163 48.5786 315.377 48.5762C318.788 48.5762 321.562 49.6594 323.699 51.8257C325.837 53.9921 326.904 56.8573 326.902 60.4214V61.4495ZM321.463 57.2012C321.115 56.0096 320.365 54.9726 319.338 54.2638C318.264 53.5092 316.974 53.1154 315.658 53.1402C314.225 53.1132 312.823 53.5573 311.671 54.4033C310.953 54.9296 310.288 55.8573 309.676 57.1865L321.463 57.2012Z" fill="#172951"/>
<path d="M330.015 49.1454H334.676V51.8516C335.108 50.873 335.803 50.0317 336.687 49.4208C337.498 48.8752 338.457 48.586 339.437 48.591C340.211 48.6067 340.97 48.7963 341.659 49.1454L339.963 53.7866C339.482 53.5151 338.946 53.3533 338.393 53.3129C337.557 53.3129 336.85 53.8233 336.272 54.8514C335.694 55.8795 335.406 57.8917 335.406 60.8952L335.417 61.9343V70.6218H330.015V49.1454Z" fill="#172951"/>
<path d="M357.593 52.1452L354.228 55.4829C352.863 54.1537 351.621 53.4891 350.503 53.4891C349.998 53.4561 349.496 53.5848 349.07 53.8563C348.912 53.9619 348.781 54.1044 348.691 54.2715C348.601 54.4386 348.553 54.625 348.552 54.8146C348.556 55.1132 348.673 55.3993 348.882 55.6151C349.366 56.0308 349.913 56.3679 350.503 56.6138L352.495 57.6015C354.59 58.6272 356.03 59.6736 356.815 60.7409C357.723 62.0377 358.127 63.6163 357.953 65.1853C357.778 66.7543 357.038 68.2079 355.868 69.2778C354.456 70.5556 352.562 71.1945 350.185 71.1945C348.718 71.238 347.262 70.9264 345.943 70.2866C344.625 69.6469 343.483 68.6982 342.618 67.5227L345.949 63.906C346.571 64.6337 347.325 65.2401 348.171 65.6942C348.863 66.103 349.646 66.3374 350.451 66.3771C351.071 66.4055 351.682 66.2242 352.184 65.863C352.38 65.7306 352.541 65.5541 352.655 65.348C352.769 65.1419 352.832 64.912 352.839 64.6771C352.839 63.8472 352.049 63.0382 350.47 62.25L348.619 61.3394C345.116 59.5892 343.364 57.3971 343.362 54.7632C343.363 53.9313 343.547 53.1097 343.901 52.3557C344.255 51.6016 344.771 50.9333 345.413 50.3975C346.733 49.1931 348.423 48.5909 350.481 48.5909C351.868 48.5839 353.237 48.9023 354.476 49.52C355.715 50.1377 356.789 51.0372 357.611 52.1452H357.593Z" fill="#172951"/>
</g>
<defs>
<clipPath id="clip0">
<rect width="358" height="110.154" fill="white" transform="translate(0 0.615234)"/>
</clipPath>
</defs>
</svg>
